<?xml version="1.0" encoding="utf-8"?>
<!-- Generator: Adobe Illustrator 19.0.0, SVG Export Plug-In . SVG Version: 6.00 Build 0)  -->
<svg version="1.1" id="Capa_1" xmlns="http://www.w3.org/2000/svg" xmlns:xlink="http://www.w3.org/1999/xlink" x="0px" y="0px"
	 viewBox="-49 141 512 512" style="enable-background:new -49 141 512 512;" xml:space="preserve">
<style type="text/css">
	.st0{fill:#1A0DAB;}
</style>
<g>
	<path class="st0" d="M231.5,651.6c102.7-11.5,185-93.6,196.7-196.3c15.4-134.3-89-248.6-219.8-250.1v-60.2c0-3.3-4.2-5.1-7-3
		L77.3,233c-2.1,1.6-2.1,4.6,0,6.2l124,91.1c2.8,2.1,7,0.2,7-3v-60.1c91.9,1.5,165.6,79.7,159.3,173.2
		c-5.3,80.4-70.9,145.7-151.3,150.8c-85.2,5.4-157.7-55.4-170.7-136c-2.4-15-15.5-25.8-30.5-25.8c-18.7,0-33.4,16.6-30.4,35.1
		C2.9,579.2,108.8,665.3,231.5,651.6z"/>
</g>
</svg>
