<?xml version="1.0" encoding="iso-8859-1"?>
<!-- Generator: Adobe Illustrator 16.0.0, SVG Export Plug-In . SVG Version: 6.00 Build 0)  -->
<!DOCTYPE svg PUBLIC "-//W3C//DTD SVG 1.1//EN" "http://www.w3.org/Graphics/SVG/1.1/DTD/svg11.dtd">
<svg xmlns="http://www.w3.org/2000/svg" xmlns:xlink="http://www.w3.org/1999/xlink" version="1.1" id="Capa_1" x="0px" y="0px" width="512px" height="512px" viewBox="0 0 554.625 554.625" style="enable-background:new 0 0 554.625 554.625;" xml:space="preserve">
<g>
	<g>
		<polygon points="499.162,319.388 439.875,378.675 409.275,348.075 393.975,361.463 439.875,405.45 514.463,332.775   " fill="#FFDA44"/>
		<path d="M478.125,252.45V133.875c0-21.038-17.213-38.25-38.25-38.25H38.25C17.212,95.625,0,112.837,0,133.875v229.5    c0,21.037,17.212,38.25,38.25,38.25h317.475C372.938,436.05,409.275,459,449.438,459c57.375,0,105.188-47.812,105.188-105.188    C554.625,306,522.112,265.837,478.125,252.45z M430.312,114.75l-191.25,166.388L47.812,114.75H430.312z M24.862,376.763    c-3.825-3.825-5.737-7.65-5.737-13.388v-229.5c0-5.737,1.913-9.562,5.737-13.388l147.263,128.138L24.862,376.763z M348.075,382.5    H47.812l139.612-120.487L239.062,306l51.638-43.987l61.2,53.55c-5.738,11.475-7.65,24.862-7.65,40.162    C344.25,363.375,346.162,372.938,348.075,382.5z M306,248.625l147.263-128.138c3.825,3.825,5.737,7.65,5.737,13.388v114.75    c-3.825,0-5.737,0-9.562,0c-36.338,0-70.763,19.125-87.975,47.812L306,248.625z M449.438,439.875    c-47.812,0-86.062-38.25-86.062-86.062s38.25-86.062,86.062-86.062S535.5,306,535.5,353.812S497.25,439.875,449.438,439.875z" fill="#FFDA44"/>
	</g>
</g>
<g>
</g>
<g>
</g>
<g>
</g>
<g>
</g>
<g>
</g>
<g>
</g>
<g>
</g>
<g>
</g>
<g>
</g>
<g>
</g>
<g>
</g>
<g>
</g>
<g>
</g>
<g>
</g>
<g>
</g>
</svg>
